# xmcd
#
# Track frame offsets: 
#        150
#        18270
#        35798
#        50818
#        63623
#        76223
#        96548
#        111280
#        122198
#        137795
#        154598
#        167373
#        189473
#        211113
#        226170
#        245048
#        254798
#
# Disc length: 3645 seconds
#
# Revision: 5
# Processed by: cddbd v1.5.2PL0 Copyright (c) Steve Scherf et al.
# Submitted via: ExactAudioCopy v1.0b4
#
DISCID=f40e3b11
DTITLE=Various Artist - Blues With a Feeling [Disc 2]
DYEAR=1993
DGENRE=Blues
TTITLE0=Elizabeth Cotten - Elizabeth Cotten - Freight Train
TTITLE1=Mississippi John Hurt - Mississippi John Hurt - Here I Am Lord
TTITLE1=Send Me
TTITLE2=Mississippi John Hurt - Mississippi John Hurt - Pallet On Your
TTITLE2=Floor
TTITLE3=Jesse "Lone Cat" Fuller - Jesse "Lone Cat" Fuller - San Franci
TTITLE3=sco Bay Blues
TTITLE4=John Lee Hooker - John Lee Hooker - I Can't Quit You Baby - St
TTITLE4=op Now Baby
TTITLE5=Muddy Waters - Muddy Waters - Walkin' Blues
TTITLE6=Muddy Waters - Muddy Waters - I Can't Be Satisfied
TTITLE7=Eddie Boyd and Willie Dixon - Eddie Boyd and Willie Dixon - Five L
TTITLE7=ong Years
TTITLE8=Lafayette Leake and Willie Dixon - Lafayette Leake and Willie Dixo
TTITLE8=n - Wrinkles
TTITLE9=Dave Van Ronk - Dave Van Ronk - Cocaine
TTITLE10=John Hammond - John Hammond - Drop Down Mama
TTITLE11=Eric Von Schmidt - Eric Von Schmidt - Grizzly Bear
TTITLE12="Spider" John Koerner - "Spider" John Koerner - Traveling Blu
TTITLE12=es
TTITLE13=The Chambers Brothers - The Chambers Brothers - See See Rider
TTITLE14=Paul Butterfield Blues - Paul Butterfield Blues - Blues With 
TTITLE14=A Feeling
TTITLE15=Paul Butterfield Blues - Paul Butterfield Blues - Look Over Y
TTITLE15=onders Wall
TTITLE16=Paul Butterfield Blues - Paul Butterfield Blues - Born In Chi
TTITLE16=cago
EXTD=
EXTT0=
EXTT1=
EXTT2=
EXTT3=
EXTT4=
EXTT5=
EXTT6=
EXTT7=
EXTT8=
EXTT9=
EXTT10=
EXTT11=
EXTT12=
EXTT13=
EXTT14=
EXTT15=
EXTT16=
PLAYORDER=
